<?xml version="1.0" standalone="no"?>
<!DOCTYPE svg PUBLIC "-//W3C//DTD SVG 20010904//EN"
 "http://www.w3.org/TR/2001/REC-SVG-20010904/DTD/svg10.dtd">
<svg version="1.0" xmlns="http://www.w3.org/2000/svg"
 width="300.000000pt" height="32.000000pt" viewBox="0 0 300.000000 32.000000"
 preserveAspectRatio="xMidYMid meet">
<metadata>
Created by potrace 1.10, written by Peter Selinger 2001-2011
</metadata>
<g transform="translate(0.000000,32.000000) scale(0.100000,-0.100000)"
fill="#000000" stroke="none">
<path d="M15 310 c-3 -4 46 -10 108 -14 564 -27 677 -36 1022 -78 164 -20 244
-38 170 -38 -43 -1 -112 -35 -120 -59 -16 -51 44 -85 179 -102 101 -13 263 -4
324 19 49 18 78 56 66 86 -7 18 -82 56 -112 56 -12 0 -22 5 -22 10 0 6 14 10
32 10 17 0 101 9 187 20 298 38 422 47 1028 77 62 3 113 9 113 13 0 10 -442 4
-735 -11 -218 -11 -523 -39 -682 -63 -82 -12 -104 -12 -215 4 -173 26 -409 47
-638 59 -277 15 -699 21 -705 11z m1573 -171 c100 -25 116 -35 76 -46 -63 -18
-409 -5 -390 14 8 8 177 51 204 52 12 1 62 -9 110 -20z"/>
</g>
</svg>
