<?xml version="1.0" standalone="no"?>
<!DOCTYPE svg PUBLIC "-//W3C//DTD SVG 20010904//EN"
 "http://www.w3.org/TR/2001/REC-SVG-20010904/DTD/svg10.dtd">
<svg version="1.0" xmlns="http://www.w3.org/2000/svg"
 width="2560.000000pt" height="2560.000000pt" viewBox="0 0 2560.000000 2560.000000"
 preserveAspectRatio="xMidYMid meet">

<g transform="translate(0.000000,2560.000000) scale(0.100000,-0.100000)"
fill="#000000" stroke="none">
<path d="M11565 23001 c-84 -38 -184 -163 -262 -328 l-45 -95 -97 95 c-205
201 -441 343 -521 315 -40 -13 -77 -80 -91 -161 -21 -125 -1 -772 51 -1642 11
-181 20 -375 20 -429 l0 -99 -43 -41 c-23 -23 -159 -120 -302 -216 -792 -534
-1194 -918 -1384 -1321 -69 -147 -112 -281 -197 -619 -166 -652 -243 -869
-345 -970 -120 -119 -308 -241 -569 -370 -220 -108 -272 -153 -286 -247 -28
-187 294 -585 599 -739 126 -64 159 -69 477 -68 326 1 390 8 705 80 110 25
283 63 385 84 755 159 1142 160 1410 1 82 -49 112 -83 158 -179 82 -173 43
-367 -129 -644 -63 -103 -161 -234 -334 -448 -242 -302 -326 -430 -398 -610
-77 -193 -145 -486 -162 -700 l-7 -85 61 60 c67 65 142 170 240 335 65 110
160 244 168 236 3 -2 -22 -62 -55 -133 -61 -132 -128 -307 -181 -473 -76 -240
-77 -263 -17 -209 61 53 341 353 538 576 238 269 275 309 282 302 3 -3 -44
-85 -104 -183 -61 -97 -152 -254 -202 -349 -215 -407 -343 -593 -534 -777 -96
-92 -220 -185 -335 -250 -225 -127 -601 -254 -821 -276 -32 -3 -58 -9 -58 -14
0 -12 137 -55 246 -77 124 -24 377 -25 494 0 317 68 592 223 919 521 114 102
129 102 62 -1 -51 -79 -143 -240 -216 -378 -117 -220 -232 -365 -362 -451 -32
-21 -121 -67 -198 -102 -202 -92 -203 -96 -24 -88 312 13 525 74 722 208 111
75 284 253 388 400 77 107 -62 -254 -213 -556 -121 -243 -207 -365 -377 -539
l-115 -118 84 36 c355 152 610 332 860 607 58 64 108 117 113 117 12 2 -58
-133 -154 -294 -94 -157 -190 -298 -252 -367 -21 -23 -36 -43 -34 -45 7 -6
121 37 204 77 97 48 199 127 308 241 43 46 88 90 98 98 18 13 18 12 1 -20 -36
-71 -129 -201 -221 -308 l-38 -44 36 7 c74 13 256 78 340 120 105 52 174 98
259 170 126 108 110 54 -28 -95 -157 -168 -310 -270 -452 -303 -36 -9 -110
-20 -165 -27 -55 -6 -102 -12 -103 -14 -2 -2 35 -56 83 -120 331 -445 475
-812 605 -1540 15 -83 56 -374 75 -530 53 -430 75 -1178 57 -1892 -7 -257 -17
-531 -22 -608 -22 -302 -81 -788 -125 -1026 -22 -121 -76 -323 -89 -336 -3 -3
-65 33 -138 79 -406 259 -972 574 -1593 887 -498 252 -790 381 -1226 544 -289
107 -358 131 -365 124 -3 -3 51 -44 120 -91 69 -48 159 -113 198 -146 74 -59
158 -140 146 -140 -4 0 -49 27 -100 61 -184 119 -557 287 -813 364 -233 71
-911 232 -923 220 -3 -2 24 -18 59 -33 282 -127 565 -265 614 -298 31 -22 7
-17 -100 22 -55 19 -224 74 -375 120 -342 105 -471 149 -680 231 -374 148
-637 308 -836 509 -112 113 -189 226 -256 376 -27 62 -54 117 -58 122 -27 28
-23 -201 5 -351 61 -322 275 -637 643 -946 52 -44 92 -81 89 -83 -11 -11 -302
107 -547 223 -408 193 -736 442 -934 706 -140 187 -217 395 -265 719 -12 75
-21 142 -21 149 0 39 -21 -20 -43 -121 -110 -497 -16 -1012 303 -1655 429
-866 1162 -1697 1810 -2054 153 -84 167 -102 63 -81 -243 50 -666 219 -906
362 -55 32 -102 56 -104 54 -11 -11 310 -318 422 -404 541 -419 1225 -758
1885 -934 109 -29 120 -33 85 -36 -61 -5 -349 16 -524 39 -266 34 -478 76
-731 145 -68 19 -129 33 -134 31 -22 -7 225 -148 469 -268 635 -311 1556 -565
2445 -673 352 -43 485 -51 870 -50 l365 1 -85 -40 c-153 -71 -520 -183 -753
-229 -59 -12 -102 -25 -95 -29 48 -26 236 -44 653 -61 388 -17 5822 -16 6395
0 429 13 484 19 672 72 498 142 919 423 1325 885 346 393 784 1071 1054 1630
266 553 387 1010 430 1623 18 251 6 883 -20 1094 -45 366 -108 604 -246 926
-31 74 -55 136 -52 138 18 19 210 -406 294 -651 77 -227 184 -694 224 -987 12
-87 25 -158 29 -158 23 0 117 494 157 820 22 182 25 697 5 865 -56 468 -174
878 -392 1365 -204 457 -605 1073 -907 1393 -93 98 -110 137 -40 89 65 -46
279 -236 410 -367 312 -311 651 -757 833 -1098 38 -71 70 -122 72 -113 2 8
-30 115 -71 238 -305 912 -625 1519 -1106 2098 -127 154 -488 514 -630 629
-309 251 -621 444 -1251 776 -630 331 -863 476 -1145 711 -592 493 -1005 1138
-1308 2044 -61 182 -74 230 -59 215 6 -5 63 -104 127 -220 64 -115 171 -302
238 -413 l122 -204 3 209 c7 507 -52 850 -225 1288 -108 273 -223 474 -456
793 -49 68 -87 125 -84 128 7 7 141 -107 210 -180 198 -208 352 -415 477 -642
78 -141 90 -158 90 -128 0 29 -75 310 -111 416 -129 379 -357 755 -615 1011
-158 157 -297 249 -520 344 -63 26 -114 51 -114 55 0 14 108 8 210 -11 171
-34 369 -124 535 -244 39 -28 127 -106 196 -174 117 -114 160 -146 145 -108
-12 32 -150 242 -219 334 -88 118 -299 332 -427 433 -259 206 -557 372 -935
523 -93 38 -175 73 -181 79 -7 6 -45 72 -84 146 -555 1033 -879 1589 -1219
2090 -261 385 -503 659 -642 729 -74 37 -150 41 -214 12z m-250 -792 c-67
-287 -90 -530 -82 -841 4 -172 9 -217 45 -408 64 -333 76 -435 76 -630 1 -157
-1 -182 -22 -240 -49 -142 -162 -294 -252 -340 -54 -28 -121 -27 -147 3 -40
44 -47 70 -51 208 -12 369 113 1188 279 1829 63 244 163 549 176 537 2 -3 -8
-56 -22 -118z m-1190 -3919 c3 -6 -57 -40 -137 -78 -317 -152 -735 -414 -959
-603 -126 -107 -126 -95 0 79 43 59 113 165 156 235 122 202 192 266 330 301
74 18 246 43 425 60 176 18 178 18 185 6z m3343 -7372 c27 -40 101 -158 164
-263 377 -624 542 -998 603 -1364 28 -167 33 -183 48 -178 18 6 57 112 78 212
15 68 21 153 26 350 3 143 9 269 13 280 5 15 11 2 23 -50 43 -189 77 -511 77
-734 0 -204 10 -230 54 -143 82 164 145 433 166 717 6 77 13 153 16 169 6 27
7 28 18 10 7 -13 11 -115 11 -324 0 -274 -2 -317 -22 -421 -31 -161 -74 -284
-144 -418 -33 -63 -58 -116 -55 -118 2 -2 51 16 108 41 57 25 151 58 208 73
92 24 124 27 255 28 123 0 157 -3 189 -18 23 -10 36 -21 30 -26 -5 -4 -54 -15
-109 -24 -228 -37 -632 -201 -895 -365 -235 -146 -468 -345 -607 -517 -221
-273 -402 -643 -462 -941 -42 -213 -60 -556 -42 -834 16 -251 49 -372 163
-607 119 -247 274 -451 547 -724 350 -349 736 -642 1261 -956 113 -67 212
-127 220 -132 28 -18 -182 -12 -302 8 -309 53 -757 199 -1215 397 -276 118
-872 428 -958 497 -19 15 -35 36 -35 46 0 10 15 41 34 68 95 138 156 333 156
499 0 146 -38 278 -167 589 -156 372 -184 508 -163 786 28 375 138 642 506
1230 312 497 413 745 474 1148 71 482 8 999 -206 1662 -49 155 -124 404 -124
415 0 13 15 -4 58 -68z"/>
</g>
</svg>
